<?xml version="1.0" encoding="utf-8"?>
<!-- Generator: Adobe Illustrator 26.0.3, SVG Export Plug-In . SVG Version: 6.00 Build 0)  -->
<svg version="1.1" id="Signature" xmlns="http://www.w3.org/2000/svg" xmlns:xlink="http://www.w3.org/1999/xlink" x="0px" y="0px"
	 viewBox="0 0 701.3 168.9" style="enable-background:new 0 0 701.3 168.9;" xml:space="preserve">
<style type="text/css">
	.st0{fill:#FFFFFF;}
	.st1{fill-rule:evenodd;clip-rule:evenodd;fill:#FFFFFF;}
	.st2{fill-rule:evenodd;clip-rule:evenodd;fill:#0062AE;}
	.st3{fill:#FFFFFF;stroke:#FFFFFF;stroke-width:1.023;stroke-miterlimit:10;}
</style>
<g>
	<g>
		<g>
			<path class="st0" d="M243.7,94.4l0-38.8h-0.3c-1.4,1.3-6.5,1.4-8.6,1.4H231v0.3c4.3,2.7,3.7,6.6,3.7,11.5l0,16.4
				c0,8.2-8.1,14-14.6,14c-8.6,0-12.1-6.1-12.1-15.9V55.6h-0.3c-1.4,1.3-6.5,1.4-8.7,1.4h-3.7v0.3c4.3,2.7,3.7,6.6,3.7,11.5v16.4
				c0,15,6.5,22.1,18.1,22.1c6.9,0,14-2.4,17.5-8.3v7.1h12.7v-0.3C243.1,103.2,243.7,99.3,243.7,94.4z"/>
			<path class="st0" d="M263.4,73.7c1.2-6.7,6.1-10.9,12.7-10.9c7.1,0,11.6,3.5,12.7,10.9H263.4z M299.1,79.8
				c0.4-13.7-8.8-24-22.2-24c-14.7,0-24.6,10.6-24.6,25.4c0,14.9,11.5,26.2,28.2,26.2c4.6,0,9.4-0.7,13.6-2.6l4.9-10h-0.3
				c-4.5,3.9-10.2,5.7-16.1,5.7c-11.1,0-19.5-7.6-19.7-20.6H299.1z"/>
			<path class="st0" d="M306.9,33.1c2.4,0,7.2-0.1,8.6-1.6h0.3v67.2c2.6,0.7,5.4,1.3,8.1,1.3c10.8,0,16.9-7.5,16.9-18
				c0-10.3-4.8-18.2-14.7-18.2c-3.1,0-5.6,0.8-8.2,2.3l5.3-9c2.2-0.9,4.6-1.2,6.9-1.2c11.2,0,20.6,9.7,20.6,24.2
				c0,16.6-11.2,27.4-29,27.4c-6.6,0-13-1.2-17.9-1.9v-0.3c3.2-1.5,3-5,3-8.5V47.8c0-4.9,0.6-11.8-3.6-14.4v-0.3H306.9z"/>
			<path class="st0" d="M368.3,73.7c1.2-6.7,6.1-10.9,12.7-10.9c7.1,0,11.6,3.5,12.7,10.9H368.3z M404.1,79.8
				c0.4-13.7-8.8-24-22.1-24c-14.7,0-24.6,10.6-24.6,25.4c0,14.9,11.5,26.2,28.2,26.2c4.6,0,9.4-0.7,13.6-2.6l4.9-10h-0.3
				c-4.5,3.9-10.2,5.7-16.1,5.7c-11.1,0-19.5-7.6-19.7-20.6H404.1z"/>
			<path class="st0" d="M448.1,68h-0.3c-2.9-3.5-7.6-5.2-12-5.2c-9.5,0-16.4,7.2-16.4,17.4c0,12.3,9.5,20.4,20.5,20.4
				c5,0,10.5-2.1,14.4-5.2h0.3l-5.1,10.1c-4.1,1.7-8.7,2.1-13,2.1c-15.2,0-27-10.7-27-24.5c0-18.3,13.2-27.1,28.1-27.1
				c3.5,0,7.2,0.4,10.6,1.3V68z"/>
			<path class="st1" d="M286.8,47c0-5,0-10.7,0-10.7c-6.5,2.9-12.4,8.3-16.4,13.6v4.2C280,47.6,286.8,47.3,286.8,47z"/>
			<path class="st0" d="M154.9,100.1c-14.9,0-25.2-16.8-25.2-31c0-0.1,0-1.5,0-1.6c0.2-13.8,9.1-26.7,24.7-26.7
				c16.4,0,24.9,15.5,25,30.2c0,0.1,0,1.4,0,1.5C179.4,88.2,169.7,100.1,154.9,100.1z M205.9,116.4c-11,1.8-21.5-1.7-32.7-14.5
				c10.8-5.4,17.5-19,17.5-31.6c0-0.1,0-1.4,0-1.6c-0.2-21.5-16.4-35.7-35.6-35.7c-19.3,0-36.4,14.8-36.5,36.5c0,0.1,0,1.4,0,1.5
				c0,21.1,15.7,36.8,34.9,36.8c2.8,0,5.4-0.4,8.1-1.1c12.6,11.8,23.8,16.8,33.5,15.6c4.6-0.6,9.4-2.4,12.4-6.2L205.9,116.4z"/>
		</g>
	</g>
	<g>
		<g>
			<g>
				<rect x="472.1" y="33.1" class="st1" width="48" height="29.4"/>
			</g>
		</g>
		<path class="st2" d="M496.1,34.6c-0.3,0.6-1.1,1.6-2.5,3.2c-1.5,1.9-1.3,4.5-0.5,6c0.8,1.7,1.3,3.2,1.7,4.6c0.5,2,0.2,4.7,0.2,4.4
			h-1.3c0-3.2-1-6.3-3.5-7.7c-3.5-1.9-6.9,1.4-5.8,4.9c0.6,1.8,1.6,2.4,1.9,2.4c0,0-0.5-2,1-3c1.4-1,3.1-0.4,3.8,0.8
			c0.7,1.1,0.9,2.6,0.9,2.6h-2.5v1.9l5,0c0,0-0.1,2.6-2.9,2.4c0,0,0.3,2.1,2.9,1c0,0-0.1,2.2,1.6,3.2l0,0l0,0
			c1.7-1.1,1.6-3.2,1.6-3.2c2.6,1.1,2.9-1,2.9-1c-2.8,0.3-2.9-2.4-2.9-2.4l5,0v-1.9h-2.5c0,0,0.1-1.5,0.9-2.6
			c0.8-1.2,2.5-1.7,3.8-0.8c1.5,1,1,3,1,3c0.3,0,1.3-0.6,1.9-2.4c1.1-3.5-2.3-6.8-5.8-4.9c-2.5,1.4-3.5,4.4-3.5,7.7h-1.3
			c0,0.2-0.3-2.4,0.2-4.4c0.4-1.4,0.9-2.8,1.7-4.6c0.7-1.5,1-4.1-0.5-6C497.2,36.2,496.4,35.3,496.1,34.6z"/>
		<g>
			<g>
				<rect x="534.1" y="33.1" class="st1" width="48" height="29.4"/>
			</g>
		</g>
		<path class="st2" d="M558.1,34.6c-0.4,0.6-1.1,1.6-2.5,3.2c-1.5,1.9-1.3,4.5-0.5,6c0.8,1.7,1.3,3.2,1.7,4.6c0.5,2,0.2,4.7,0.2,4.4
			h-1.3c0-3.2-1-6.3-3.5-7.7c-3.5-1.9-6.9,1.4-5.8,4.9c0.6,1.8,1.6,2.4,1.9,2.4c0,0-0.5-2,1-3c1.4-1,3-0.4,3.8,0.8
			c0.7,1.1,0.9,2.6,0.9,2.6h-2.5v1.9l5,0c0,0-0.1,2.6-2.9,2.4c0,0,0.3,2.1,2.9,1c0,0-0.1,2.2,1.6,3.2l0,0l0,0
			c1.7-1.1,1.6-3.2,1.6-3.2c2.6,1.1,2.9-1,2.9-1c-2.8,0.3-2.9-2.4-2.9-2.4l5,0v-1.9h-2.5c0,0,0.1-1.5,0.9-2.6
			c0.8-1.2,2.5-1.7,3.8-0.8c1.4,1,1,3,1,3c0.3,0,1.3-0.6,1.9-2.4c1.1-3.5-2.3-6.8-5.8-4.9c-2.4,1.4-3.5,4.4-3.5,7.7h-1.3
			c0,0.2-0.3-2.4,0.2-4.4c0.4-1.4,0.9-2.8,1.7-4.6c0.7-1.5,1-4.1-0.5-6C559.2,36.2,558.4,35.3,558.1,34.6z"/>
	</g>
	<g>
		<g>
			<g>
				<rect x="472.1" y="76.5" class="st1" width="48" height="29.4"/>
			</g>
		</g>
		<path class="st2" d="M496.1,78.1c-0.3,0.6-1.1,1.6-2.5,3.2c-1.5,1.9-1.3,4.5-0.5,6c0.8,1.7,1.3,3.2,1.7,4.6c0.5,2,0.2,4.6,0.2,4.4
			h-1.3c0-3.2-1-6.3-3.5-7.7c-3.5-1.9-6.9,1.4-5.8,4.9c0.6,1.8,1.6,2.4,1.9,2.4c0,0-0.5-2,1-3c1.4-1,3.1-0.4,3.8,0.8
			c0.7,1.1,0.9,2.6,0.9,2.6h-2.5v1.8h5c0,0-0.1,2.6-2.9,2.4c0,0,0.3,2.1,2.9,1c0,0-0.1,2.2,1.6,3.2l0,0l0,0c1.7-1.1,1.6-3.2,1.6-3.2
			c2.6,1.1,2.9-1,2.9-1c-2.8,0.2-2.9-2.4-2.9-2.4h5v-1.8h-2.5c0,0,0.1-1.5,0.9-2.6c0.8-1.1,2.5-1.7,3.8-0.8c1.5,1,1,3,1,3
			c0.3,0,1.3-0.6,1.9-2.4c1.1-3.5-2.3-6.8-5.8-4.9c-2.5,1.4-3.5,4.4-3.5,7.7h-1.3c0,0.2-0.3-2.4,0.2-4.4c0.4-1.4,0.9-2.8,1.7-4.6
			c0.7-1.5,1-4.1-0.5-6C497.2,79.7,496.4,78.7,496.1,78.1z"/>
		<g>
			<g>
				<rect x="534.1" y="76.5" class="st1" width="48" height="29.4"/>
			</g>
		</g>
		<path class="st2" d="M558.1,78.1c-0.4,0.6-1.1,1.6-2.5,3.2c-1.5,1.9-1.3,4.5-0.5,6c0.8,1.7,1.3,3.2,1.7,4.6c0.5,2,0.2,4.6,0.2,4.4
			h-1.3c0-3.2-1-6.3-3.5-7.7c-3.5-1.9-6.9,1.4-5.8,4.9c0.6,1.8,1.6,2.4,1.9,2.4c0,0-0.5-2,1-3c1.4-1,3-0.4,3.8,0.8
			c0.7,1.1,0.9,2.6,0.9,2.6h-2.5v1.8h5c0,0-0.1,2.6-2.9,2.4c0,0,0.3,2.1,2.9,1c0,0-0.1,2.2,1.6,3.2l0,0l0,0c1.7-1.1,1.6-3.2,1.6-3.2
			c2.6,1.1,2.9-1,2.9-1c-2.8,0.2-2.9-2.4-2.9-2.4h5v-1.8h-2.5c0,0,0.1-1.5,0.9-2.6c0.8-1.1,2.5-1.7,3.8-0.8c1.4,1,1,3,1,3
			c0.3,0,1.3-0.6,1.9-2.4c1.1-3.5-2.3-6.8-5.8-4.9c-2.4,1.4-3.5,4.4-3.5,7.7h-1.3c0,0.2-0.3-2.4,0.2-4.4c0.4-1.4,0.9-2.8,1.7-4.6
			c0.7-1.5,1-4.1-0.5-6C559.2,79.7,558.4,78.7,558.1,78.1z"/>
	</g>
</g>
<g>
	<path class="st3" d="M1.7,154.6v-17.7H7c2,0,3.8,0.7,5.2,2.2s2.1,3.3,2.1,5.6v2.2c0,2.3-0.7,4.1-2.1,5.6c-1.4,1.5-3.2,2.2-5.2,2.2
		H1.7z M2.4,137.5V154H7c1.8,0,3.4-0.7,4.7-2c1.3-1.3,1.9-3,1.9-5.1v-2.2c0-2-0.6-3.7-1.9-5.1c-1.3-1.3-2.9-2-4.7-2H2.4z"/>
	<path class="st3" d="M22.7,154.9c-1.6,0-2.9-0.6-3.9-1.8c-1.1-1.2-1.6-2.7-1.6-4.5v-0.8c0-1.9,0.5-3.5,1.6-4.7s2.4-1.8,4-1.8
		c1.5,0,2.6,0.5,3.5,1.4c0.9,1,1.3,2.3,1.3,3.9v1h-9.7v0.2v0.8c0,1.6,0.5,3,1.4,4c0.9,1.1,2.1,1.6,3.5,1.6c0.8,0,1.5-0.1,2.3-0.4
		c0.7-0.3,1.3-0.7,1.8-1.2l0.4,0.5c-0.5,0.5-1.1,0.9-1.8,1.3C24.5,154.7,23.7,154.9,22.7,154.9z M22.7,141.9c-1.4,0-2.5,0.5-3.4,1.4
		c-0.9,0.9-1.4,2.1-1.5,3.6l0,0.1h8.9v-0.4c0-1.4-0.4-2.5-1.1-3.4C25,142.3,24,141.9,22.7,141.9z"/>
	<path class="st3" d="M38.8,151.4c0-0.7-0.3-1.3-0.9-1.9c-0.6-0.6-1.6-1-3.1-1.3c-1.6-0.3-2.7-0.8-3.4-1.3c-0.7-0.5-1.1-1.3-1.1-2.3
		c0-0.9,0.4-1.7,1.2-2.4c0.8-0.6,1.9-1,3.2-1c1.5,0,2.6,0.3,3.4,1c0.8,0.7,1.2,1.6,1.2,2.7l0,0.1h-0.6c0-0.9-0.4-1.6-1.1-2.2
		c-0.7-0.6-1.7-0.9-3-0.9c-1.2,0-2.2,0.3-2.8,0.8s-0.9,1.1-0.9,1.8c0,0.7,0.3,1.3,0.8,1.8c0.5,0.5,1.6,0.9,3.2,1.3
		c1.5,0.3,2.6,0.8,3.3,1.4c0.8,0.6,1.1,1.4,1.1,2.5c0,1-0.4,1.9-1.3,2.5c-0.8,0.6-2,1-3.4,1c-1.5,0-2.7-0.3-3.6-1
		c-0.9-0.7-1.3-1.5-1.2-2.5l0-0.1h0.5c0.1,1,0.5,1.8,1.3,2.3c0.8,0.5,1.8,0.7,2.9,0.7c1.2,0,2.2-0.3,2.9-0.9S38.8,152.1,38.8,151.4z
		"/>
	<path class="st3" d="M49.9,154.6h-0.7v-19h0.7V154.6z"/>
	<path class="st3" d="M53.2,147.8c0-1.9,0.5-3.5,1.6-4.7c1.1-1.2,2.5-1.8,4.2-1.8c1.7,0,3.1,0.6,4.2,1.8c1.1,1.2,1.6,2.8,1.6,4.7
		v0.5c0,1.9-0.5,3.5-1.6,4.7c-1.1,1.2-2.4,1.8-4.1,1.8c-1.7,0-3.1-0.6-4.2-1.8s-1.6-2.8-1.6-4.7V147.8z M53.8,148.3
		c0,1.7,0.5,3.1,1.4,4.2s2.2,1.7,3.7,1.7c1.5,0,2.8-0.6,3.7-1.7c0.9-1.2,1.4-2.6,1.4-4.2v-0.5c0-1.6-0.5-3-1.4-4.2s-2.2-1.7-3.7-1.7
		c-1.6,0-2.8,0.6-3.7,1.7s-1.4,2.6-1.4,4.2V148.3z"/>
	<path class="st3" d="M67.3,148c0-2.1,0.4-3.7,1.3-5c0.9-1.2,2.1-1.8,3.7-1.8c1,0,1.9,0.2,2.7,0.7s1.3,1.1,1.8,1.9l0.1-2.4h0.6v4.1
		c0,0,0,0,0,0c0,0,0,0,0,0v5.4c0,0,0,0,0,0s0,0,0,0v3.7c0,1.7-0.4,3-1.3,3.9c-0.9,0.9-2.1,1.4-3.7,1.4c-0.6,0-1.3-0.1-2-0.2
		c-0.7-0.1-1.3-0.3-1.8-0.6l0.2-0.7c0.6,0.3,1.2,0.5,1.7,0.6c0.6,0.1,1.2,0.2,1.9,0.2c1.4,0,2.5-0.4,3.2-1.2
		c0.7-0.8,1.1-1.9,1.1-3.4v-2.1c-0.4,0.7-1,1.2-1.8,1.7c-0.8,0.4-1.6,0.6-2.7,0.6c-1.6,0-2.8-0.6-3.6-1.8c-0.9-1.2-1.3-2.8-1.3-4.8
		V148z M67.9,148.3c0,1.8,0.4,3.3,1.1,4.3s1.8,1.6,3.2,1.6c1.1,0,2.1-0.3,2.8-0.8s1.3-1.2,1.7-2v-6.3c-0.3-0.9-0.8-1.7-1.5-2.3
		c-0.7-0.6-1.7-0.9-2.9-0.9c-1.4,0-2.5,0.6-3.2,1.7c-0.7,1.1-1.1,2.6-1.1,4.5V148.3z"/>
	<path class="st3" d="M86.1,154.9c-1.6,0-2.9-0.6-3.9-1.8c-1.1-1.2-1.6-2.7-1.6-4.5v-0.8c0-1.9,0.5-3.5,1.6-4.7s2.4-1.8,4-1.8
		c1.5,0,2.6,0.5,3.5,1.4c0.9,1,1.3,2.3,1.3,3.9v1h-9.7v0.2v0.8c0,1.6,0.5,3,1.4,4c0.9,1.1,2.1,1.6,3.5,1.6c0.8,0,1.5-0.1,2.3-0.4
		c0.7-0.3,1.3-0.7,1.8-1.2l0.4,0.5c-0.5,0.5-1.1,0.9-1.8,1.3C88,154.7,87.2,154.9,86.1,154.9z M86.2,141.9c-1.4,0-2.5,0.5-3.4,1.4
		c-0.9,0.9-1.4,2.1-1.5,3.6l0,0.1h8.9v-0.4c0-1.4-0.4-2.5-1.1-3.4C88.5,142.3,87.5,141.9,86.2,141.9z"/>
	<path class="st3" d="M94.6,141.4l0.1,2.7c0.4-0.9,1-1.6,1.7-2.1c0.7-0.5,1.6-0.8,2.7-0.8c1.1,0,2,0.3,2.7,0.8
		c0.7,0.6,1.2,1.4,1.5,2.6c0.4-1.1,0.9-2,1.7-2.6c0.8-0.6,1.8-0.9,2.9-0.9c1.5,0,2.6,0.5,3.3,1.4c0.8,1,1.1,2.4,1.1,4.5v7.5h-0.7
		v-7.5c0-1.9-0.3-3.3-1-4c-0.7-0.8-1.6-1.2-2.7-1.2c-1.4,0-2.4,0.4-3.1,1.2c-0.7,0.8-1.2,1.8-1.4,3.1c0,0.2,0,0.3,0,0.5
		c0,0.2,0,0.3,0,0.5v7.5h-0.7v-6.7h0c0-0.2,0-0.3,0-0.5c0-0.2,0-0.3,0-0.5c0-1.9-0.4-3.2-1-4c-0.7-0.8-1.6-1.2-2.7-1.2
		c-1.3,0-2.4,0.4-3.1,1.2c-0.7,0.8-1.2,1.8-1.4,3v8.6h-0.7v-6.7h0c0-0.1,0-0.2,0-0.3c0-0.1,0-0.3,0-0.4v-5.7H94.6z"/>
	<path class="st3" d="M121.2,154.9c-1.6,0-2.9-0.6-3.9-1.8c-1.1-1.2-1.6-2.7-1.6-4.5v-0.8c0-1.9,0.5-3.5,1.6-4.7s2.4-1.8,4-1.8
		c1.5,0,2.6,0.5,3.5,1.4c0.9,1,1.3,2.3,1.3,3.9v1h-9.7v0.2v0.8c0,1.6,0.5,3,1.4,4c0.9,1.1,2.1,1.6,3.5,1.6c0.8,0,1.5-0.1,2.3-0.4
		c0.7-0.3,1.3-0.7,1.8-1.2l0.4,0.5c-0.5,0.5-1.1,0.9-1.8,1.3C123,154.7,122.2,154.9,121.2,154.9z M121.2,141.9
		c-1.4,0-2.5,0.5-3.4,1.4c-0.9,0.9-1.4,2.1-1.5,3.6l0,0.1h8.9v-0.4c0-1.4-0.4-2.5-1.1-3.4C123.5,142.3,122.5,141.9,121.2,141.9z"/>
	<path class="st3" d="M129.8,141.4l0.1,2.7c0.4-0.9,1-1.6,1.8-2.1s1.7-0.8,2.8-0.8c1.4,0,2.5,0.5,3.2,1.4s1.1,2.3,1.1,4.3v7.8h-0.7
		v-7.8c0-1.8-0.3-3.1-1-3.9c-0.7-0.7-1.5-1.1-2.7-1.1c-1.4,0-2.4,0.4-3.2,1.2c-0.7,0.8-1.2,1.8-1.4,3.1v8.5h-0.7v-6.7h0
		c0-0.2,0-0.3,0-0.5c0-0.2,0-0.3,0-0.5v-5.5H129.8z"/>
	<path class="st3" d="M144.2,137.9v3.6h3.2v0.7h-3.2v9.1c0,1.1,0.2,1.8,0.5,2.3s0.8,0.7,1.4,0.7c0.2,0,0.4,0,0.6,0
		c0.2,0,0.4,0,0.7-0.1l0.1,0.6c-0.2,0.1-0.4,0.1-0.6,0.1s-0.5,0-0.7,0c-0.9,0-1.6-0.3-2-0.9c-0.5-0.6-0.7-1.5-0.7-2.8v-9.1h-2.4
		v-0.7h2.4v-3.6H144.2z"/>
	<path class="st3" d="M158.6,151.4c0-0.7-0.3-1.3-0.9-1.9c-0.6-0.6-1.6-1-3.1-1.3c-1.6-0.3-2.7-0.8-3.4-1.3
		c-0.7-0.5-1.1-1.3-1.1-2.3c0-0.9,0.4-1.7,1.2-2.4c0.8-0.6,1.9-1,3.2-1c1.5,0,2.6,0.3,3.4,1c0.8,0.7,1.2,1.6,1.2,2.7l0,0.1h-0.6
		c0-0.9-0.4-1.6-1.1-2.2c-0.7-0.6-1.7-0.9-3-0.9c-1.2,0-2.2,0.3-2.8,0.8s-0.9,1.1-0.9,1.8c0,0.7,0.3,1.3,0.8,1.8
		c0.5,0.5,1.6,0.9,3.2,1.3c1.5,0.3,2.6,0.8,3.3,1.4c0.8,0.6,1.1,1.4,1.1,2.5c0,1-0.4,1.9-1.3,2.5c-0.8,0.6-2,1-3.4,1
		c-1.5,0-2.7-0.3-3.6-1c-0.9-0.7-1.3-1.5-1.2-2.5l0-0.1h0.5c0.1,1,0.5,1.8,1.3,2.3c0.8,0.5,1.8,0.7,2.9,0.7c1.2,0,2.2-0.3,2.9-0.9
		S158.6,152.1,158.6,151.4z"/>
	<path class="st3" d="M177,151.4c0-0.7-0.3-1.3-0.9-1.9c-0.6-0.6-1.6-1-3.1-1.3c-1.6-0.3-2.7-0.8-3.4-1.3c-0.7-0.5-1.1-1.3-1.1-2.3
		c0-0.9,0.4-1.7,1.2-2.4c0.8-0.6,1.9-1,3.2-1c1.5,0,2.6,0.3,3.4,1c0.8,0.7,1.2,1.6,1.2,2.7l0,0.1H177c0-0.9-0.4-1.6-1.1-2.2
		c-0.7-0.6-1.7-0.9-3-0.9c-1.2,0-2.2,0.3-2.8,0.8s-0.9,1.1-0.9,1.8c0,0.7,0.3,1.3,0.8,1.8c0.5,0.5,1.6,0.9,3.2,1.3
		c1.5,0.3,2.6,0.8,3.3,1.4c0.8,0.6,1.1,1.4,1.1,2.5c0,1-0.4,1.9-1.3,2.5c-0.8,0.6-2,1-3.4,1c-1.5,0-2.7-0.3-3.6-1
		c-0.9-0.7-1.3-1.5-1.2-2.5l0-0.1h0.5c0.1,1,0.5,1.8,1.3,2.3c0.8,0.5,1.8,0.7,2.9,0.7c1.2,0,2.2-0.3,2.9-0.9S177,152.1,177,151.4z"
		/>
	<path class="st3" d="M190.2,152.3c-0.4,0.8-1,1.4-1.8,1.9c-0.8,0.5-1.7,0.7-2.8,0.7c-1.4,0-2.4-0.5-3.2-1.4c-0.8-1-1.2-2.5-1.2-4.5
		v-7.5h0.7v7.5c0,1.8,0.3,3.1,1,4s1.5,1.3,2.7,1.3c1.3,0,2.4-0.3,3.1-1c0.7-0.7,1.2-1.5,1.4-2.6v-9.2h0.7v7.8h0c0,0.1,0,0.2,0,0.3
		c0,0.1,0,0.2,0,0.3v4.8h-0.5L190.2,152.3z"/>
	<path class="st3" d="M205.1,148.3c0,2-0.4,3.6-1.3,4.8c-0.9,1.2-2.1,1.8-3.6,1.8c-1,0-1.9-0.2-2.7-0.6c-0.8-0.4-1.4-1-1.8-1.7
		l-0.1,2H195V151c0,0,0,0,0-0.1c0,0,0,0,0,0v-5.4c0,0,0,0,0,0s0,0,0-0.1v-9.8h0.7v8.1c0.4-0.8,1-1.4,1.8-1.9
		c0.7-0.5,1.6-0.7,2.7-0.7c1.6,0,2.8,0.6,3.6,1.8s1.3,2.9,1.3,5V148.3z M204.4,148c0-1.8-0.4-3.3-1.1-4.5c-0.7-1.1-1.8-1.7-3.2-1.7
		c-1.3,0-2.2,0.3-2.9,0.9c-0.7,0.6-1.2,1.4-1.5,2.3v6.3c0.3,0.9,0.9,1.5,1.6,2c0.8,0.5,1.7,0.8,2.8,0.8c1.4,0,2.4-0.5,3.2-1.6
		c0.7-1.1,1.1-2.5,1.1-4.3V148z"/>
	<path class="st3" d="M211.7,151.8l0.6,1.8h0.1l0.6-1.8l4.1-10.4h0.7l-5.1,13.2l0,0h-0.6l-5.1-13.2h0.7L211.7,151.8z"/>
	<path class="st3" d="M224.9,154.9c-1.6,0-2.9-0.6-3.9-1.8c-1.1-1.2-1.6-2.7-1.6-4.5v-0.8c0-1.9,0.5-3.5,1.6-4.7s2.4-1.8,4-1.8
		c1.5,0,2.6,0.5,3.5,1.4c0.9,1,1.3,2.3,1.3,3.9v1H220v0.2v0.8c0,1.6,0.5,3,1.4,4c0.9,1.1,2.1,1.6,3.5,1.6c0.8,0,1.5-0.1,2.3-0.4
		c0.7-0.3,1.3-0.7,1.8-1.2l0.4,0.5c-0.5,0.5-1.1,0.9-1.8,1.3C226.8,154.7,225.9,154.9,224.9,154.9z M224.9,141.9
		c-1.4,0-2.5,0.5-3.4,1.4c-0.9,0.9-1.4,2.1-1.5,3.6l0,0.1h8.9v-0.4c0-1.4-0.4-2.5-1.1-3.4C227.2,142.3,226.2,141.9,224.9,141.9z"/>
	<path class="st3" d="M233.5,141.4l0.1,2.7c0.4-0.9,1-1.6,1.8-2.1s1.7-0.8,2.8-0.8c1.4,0,2.5,0.5,3.2,1.4s1.1,2.3,1.1,4.3v7.8h-0.7
		v-7.8c0-1.8-0.3-3.1-1-3.9c-0.7-0.7-1.5-1.1-2.7-1.1c-1.4,0-2.4,0.4-3.2,1.2c-0.7,0.8-1.2,1.8-1.4,3.1v8.5h-0.7v-6.7h0
		c0-0.2,0-0.3,0-0.5c0-0.2,0-0.3,0-0.5v-5.5H233.5z"/>
	<path class="st3" d="M247.9,137.9v3.6h3.2v0.7h-3.2v9.1c0,1.1,0.2,1.8,0.5,2.3s0.8,0.7,1.4,0.7c0.2,0,0.4,0,0.6,0
		c0.2,0,0.4,0,0.7-0.1l0.1,0.6c-0.2,0.1-0.4,0.1-0.6,0.1s-0.5,0-0.7,0c-0.9,0-1.6-0.3-2-0.9c-0.5-0.6-0.7-1.5-0.7-2.8v-9.1h-2.4
		v-0.7h2.4v-3.6H247.9z"/>
	<path class="st3" d="M255.1,137.3h-0.7v-1.7h0.7V137.3z M255.1,154.6h-0.7v-13.2h0.7V154.6z"/>
	<path class="st3" d="M258.4,147.8c0-1.9,0.5-3.5,1.6-4.7c1.1-1.2,2.5-1.8,4.2-1.8c1.7,0,3.1,0.6,4.2,1.8c1.1,1.2,1.6,2.8,1.6,4.7
		v0.5c0,1.9-0.5,3.5-1.6,4.7c-1.1,1.2-2.4,1.8-4.1,1.8c-1.7,0-3.1-0.6-4.2-1.8s-1.6-2.8-1.6-4.7V147.8z M259,148.3
		c0,1.7,0.5,3.1,1.4,4.2s2.2,1.7,3.7,1.7c1.5,0,2.8-0.6,3.7-1.7c0.9-1.2,1.4-2.6,1.4-4.2v-0.5c0-1.6-0.5-3-1.4-4.2s-2.2-1.7-3.7-1.7
		c-1.6,0-2.8,0.6-3.7,1.7s-1.4,2.6-1.4,4.2V148.3z"/>
	<path class="st3" d="M273.6,141.4l0.1,2.7c0.4-0.9,1-1.6,1.8-2.1s1.7-0.8,2.8-0.8c1.4,0,2.5,0.5,3.2,1.4s1.1,2.3,1.1,4.3v7.8h-0.7
		v-7.8c0-1.8-0.3-3.1-1-3.9c-0.7-0.7-1.5-1.1-2.7-1.1c-1.4,0-2.4,0.4-3.2,1.2c-0.7,0.8-1.2,1.8-1.4,3.1v8.5h-0.7v-6.7h0
		c0-0.2,0-0.3,0-0.5c0-0.2,0-0.3,0-0.5v-5.5H273.6z"/>
	<path class="st3" d="M287.3,141.4l0.1,2.7c0.4-0.9,1-1.6,1.8-2.1s1.7-0.8,2.8-0.8c1.4,0,2.5,0.5,3.2,1.4s1.1,2.3,1.1,4.3v7.8h-0.7
		v-7.8c0-1.8-0.3-3.1-1-3.9c-0.7-0.7-1.5-1.1-2.7-1.1c-1.4,0-2.4,0.4-3.2,1.2c-0.7,0.8-1.2,1.8-1.4,3.1v8.5h-0.7v-6.7h0
		c0-0.2,0-0.3,0-0.5c0-0.2,0-0.3,0-0.5v-5.5H287.3z"/>
	<path class="st3" d="M305,154.9c-1.6,0-2.9-0.6-3.9-1.8c-1.1-1.2-1.6-2.7-1.6-4.5v-0.8c0-1.9,0.5-3.5,1.6-4.7s2.4-1.8,4-1.8
		c1.5,0,2.6,0.5,3.5,1.4c0.9,1,1.3,2.3,1.3,3.9v1h-9.7v0.2v0.8c0,1.6,0.5,3,1.4,4c0.9,1.1,2.1,1.6,3.5,1.6c0.8,0,1.5-0.1,2.3-0.4
		c0.7-0.3,1.3-0.7,1.8-1.2l0.4,0.5c-0.5,0.5-1.1,0.9-1.8,1.3C306.9,154.7,306,154.9,305,154.9z M305,141.9c-1.4,0-2.5,0.5-3.4,1.4
		c-0.9,0.9-1.4,2.1-1.5,3.6l0,0.1h8.9v-0.4c0-1.4-0.4-2.5-1.1-3.4C307.3,142.3,306.3,141.9,305,141.9z M307.2,135.8h0.9l0,0.1
		l-2.8,3.2h-0.8l0-0.1L307.2,135.8z"/>
	<path class="st3" d="M321.1,151.4c0-0.7-0.3-1.3-0.9-1.9c-0.6-0.6-1.6-1-3.1-1.3c-1.6-0.3-2.7-0.8-3.4-1.3
		c-0.7-0.5-1.1-1.3-1.1-2.3c0-0.9,0.4-1.7,1.2-2.4c0.8-0.6,1.9-1,3.2-1c1.5,0,2.6,0.3,3.4,1c0.8,0.7,1.2,1.6,1.2,2.7l0,0.1h-0.6
		c0-0.9-0.4-1.6-1.1-2.2c-0.7-0.6-1.7-0.9-3-0.9c-1.2,0-2.2,0.3-2.8,0.8s-0.9,1.1-0.9,1.8c0,0.7,0.3,1.3,0.8,1.8
		c0.5,0.5,1.6,0.9,3.2,1.3c1.5,0.3,2.6,0.8,3.3,1.4c0.8,0.6,1.1,1.4,1.1,2.5c0,1-0.4,1.9-1.3,2.5c-0.8,0.6-2,1-3.4,1
		c-1.5,0-2.7-0.3-3.6-1c-0.9-0.7-1.3-1.5-1.2-2.5l0-0.1h0.5c0.1,1,0.5,1.8,1.3,2.3c0.8,0.5,1.8,0.7,2.9,0.7c1.2,0,2.2-0.3,2.9-0.9
		S321.1,152.1,321.1,151.4z"/>
	<path class="st3" d="M341.5,148.3c0,2-0.4,3.6-1.3,4.8c-0.9,1.2-2.1,1.8-3.6,1.8c-1,0-1.9-0.2-2.7-0.6c-0.8-0.4-1.4-1-1.8-1.7v7.1
		h-0.7V151c0,0,0,0,0-0.1c0,0,0,0,0,0v-5.4c0,0,0,0,0,0s0,0,0-0.1v-4h0.5l0.1,2.3c0.4-0.8,1-1.4,1.8-1.9c0.8-0.5,1.6-0.7,2.7-0.7
		c1.6,0,2.8,0.6,3.6,1.8s1.3,2.9,1.3,5V148.3z M340.8,148c0-1.8-0.4-3.3-1.1-4.5c-0.7-1.1-1.8-1.7-3.2-1.7c-1.3,0-2.2,0.3-2.9,0.9
		c-0.7,0.6-1.2,1.4-1.5,2.3v6.3c0.3,0.9,0.9,1.5,1.6,2.1c0.8,0.5,1.7,0.8,2.8,0.8c1.4,0,2.4-0.5,3.2-1.6c0.7-1.1,1.1-2.5,1.1-4.3
		V148z"/>
	<path class="st3" d="M344,147.8c0-1.9,0.5-3.5,1.6-4.7c1.1-1.2,2.5-1.8,4.2-1.8c1.7,0,3.1,0.6,4.2,1.8c1.1,1.2,1.6,2.8,1.6,4.7v0.5
		c0,1.9-0.5,3.5-1.6,4.7c-1.1,1.2-2.4,1.8-4.1,1.8c-1.7,0-3.1-0.6-4.2-1.8s-1.6-2.8-1.6-4.7V147.8z M344.7,148.3
		c0,1.7,0.5,3.1,1.4,4.2s2.2,1.7,3.7,1.7c1.5,0,2.8-0.6,3.7-1.7c0.9-1.2,1.4-2.6,1.4-4.2v-0.5c0-1.6-0.5-3-1.4-4.2s-2.2-1.7-3.7-1.7
		c-1.6,0-2.8,0.6-3.7,1.7s-1.4,2.6-1.4,4.2V148.3z"/>
	<path class="st3" d="M367.5,152.3c-0.4,0.8-1,1.4-1.8,1.9c-0.8,0.5-1.7,0.7-2.8,0.7c-1.4,0-2.4-0.5-3.2-1.4c-0.8-1-1.2-2.5-1.2-4.5
		v-7.5h0.7v7.5c0,1.8,0.3,3.1,1,4s1.5,1.3,2.7,1.3c1.3,0,2.4-0.3,3.1-1c0.7-0.7,1.2-1.5,1.4-2.6v-9.2h0.7v7.8h0c0,0.1,0,0.2,0,0.3
		c0,0.1,0,0.2,0,0.3v4.8h-0.5L367.5,152.3z"/>
	<path class="st3" d="M378.2,141.9l-0.9-0.1c-1.2,0-2.1,0.4-2.9,1.1c-0.7,0.8-1.2,1.8-1.4,3v8.6h-0.7v-13.2h0.5l0.1,2.3v0.5
		c0.4-0.9,0.9-1.7,1.6-2.2s1.6-0.8,2.7-0.8c0.2,0,0.4,0,0.5,0c0.2,0,0.3,0.1,0.4,0.1L378.2,141.9z"/>
	<path class="st3" d="M387.5,154.6h-0.7v-19h0.7V154.6z"/>
	<path class="st3" d="M396.4,154.9c-1.6,0-2.9-0.6-3.9-1.8c-1.1-1.2-1.6-2.7-1.6-4.5v-0.8c0-1.9,0.5-3.5,1.6-4.7s2.4-1.8,4-1.8
		c1.5,0,2.6,0.5,3.5,1.4c0.9,1,1.3,2.3,1.3,3.9v1h-9.7v0.2v0.8c0,1.6,0.5,3,1.4,4c0.9,1.1,2.1,1.6,3.5,1.6c0.8,0,1.5-0.1,2.3-0.4
		c0.7-0.3,1.3-0.7,1.8-1.2l0.4,0.5c-0.5,0.5-1.1,0.9-1.8,1.3C398.3,154.7,397.4,154.9,396.4,154.9z M396.5,141.9
		c-1.4,0-2.5,0.5-3.4,1.4c-0.9,0.9-1.4,2.1-1.5,3.6l0,0.1h8.9v-0.4c0-1.4-0.4-2.5-1.1-3.4C398.8,142.3,397.8,141.9,396.5,141.9z"/>
	<path class="st3" d="M412.5,151.4c0-0.7-0.3-1.3-0.9-1.9c-0.6-0.6-1.6-1-3.1-1.3c-1.6-0.3-2.7-0.8-3.4-1.3
		c-0.7-0.5-1.1-1.3-1.1-2.3c0-0.9,0.4-1.7,1.2-2.4c0.8-0.6,1.9-1,3.2-1c1.5,0,2.6,0.3,3.4,1c0.8,0.7,1.2,1.6,1.2,2.7l0,0.1h-0.6
		c0-0.9-0.4-1.6-1.1-2.2c-0.7-0.6-1.7-0.9-3-0.9c-1.2,0-2.2,0.3-2.8,0.8s-0.9,1.1-0.9,1.8c0,0.7,0.3,1.3,0.8,1.8
		c0.5,0.5,1.6,0.9,3.2,1.3c1.5,0.3,2.6,0.8,3.3,1.4c0.8,0.6,1.1,1.4,1.1,2.5c0,1-0.4,1.9-1.3,2.5c-0.8,0.6-2,1-3.4,1
		c-1.5,0-2.7-0.3-3.6-1c-0.9-0.7-1.3-1.5-1.2-2.5l0-0.1h0.5c0.1,1,0.5,1.8,1.3,2.3c0.8,0.5,1.8,0.7,2.9,0.7c1.2,0,2.2-0.3,2.9-0.9
		S412.5,152.1,412.5,151.4z"/>
	<path class="st3" d="M427.4,154.9c-1.6,0-2.9-0.6-3.9-1.8c-1.1-1.2-1.6-2.7-1.6-4.5v-0.8c0-1.9,0.5-3.5,1.6-4.7s2.4-1.8,4-1.8
		c1.5,0,2.6,0.5,3.5,1.4c0.9,1,1.3,2.3,1.3,3.9v1h-9.7v0.2v0.8c0,1.6,0.5,3,1.4,4c0.9,1.1,2.1,1.6,3.5,1.6c0.8,0,1.5-0.1,2.3-0.4
		c0.7-0.3,1.3-0.7,1.8-1.2l0.4,0.5c-0.5,0.5-1.1,0.9-1.8,1.3C429.3,154.7,428.5,154.9,427.4,154.9z M427.5,141.9
		c-1.4,0-2.5,0.5-3.4,1.4c-0.9,0.9-1.4,2.1-1.5,3.6l0,0.1h8.9v-0.4c0-1.4-0.4-2.5-1.1-3.4C429.8,142.3,428.8,141.9,427.5,141.9z
		 M429.6,135.8h0.9l0,0.1l-2.8,3.2H427l0-0.1L429.6,135.8z"/>
	<path class="st3" d="M436.8,137.9v3.6h3.2v0.7h-3.2v9.1c0,1.1,0.2,1.8,0.5,2.3s0.8,0.7,1.4,0.7c0.2,0,0.4,0,0.6,0
		c0.2,0,0.4,0,0.7-0.1l0.1,0.6c-0.2,0.1-0.4,0.1-0.6,0.1s-0.5,0-0.7,0c-0.9,0-1.6-0.3-2-0.9c-0.5-0.6-0.7-1.5-0.7-2.8v-9.1h-2.4
		v-0.7h2.4v-3.6H436.8z"/>
	<path class="st3" d="M452,152.3c-0.4,0.8-1,1.4-1.8,1.9c-0.8,0.5-1.7,0.7-2.8,0.7c-1.4,0-2.4-0.5-3.2-1.4c-0.8-1-1.2-2.5-1.2-4.5
		v-7.5h0.7v7.5c0,1.8,0.3,3.1,1,4s1.5,1.3,2.7,1.3c1.3,0,2.4-0.3,3.1-1c0.7-0.7,1.2-1.5,1.4-2.6v-9.2h0.7v7.8h0c0,0.1,0,0.2,0,0.3
		c0,0.1,0,0.2,0,0.3v4.8h-0.5L452,152.3z"/>
	<path class="st3" d="M456.2,148c0-2.1,0.4-3.7,1.3-5c0.9-1.2,2.1-1.8,3.7-1.8c1,0,1.9,0.2,2.7,0.7c0.8,0.5,1.3,1.1,1.8,1.9v-8.1
		h0.7v9.9c0,0,0,0,0,0c0,0,0,0,0,0v5.4c0,0,0,0,0,0s0,0,0,0v3.6h-0.6l0-2c-0.4,0.7-1,1.3-1.8,1.7c-0.8,0.4-1.7,0.6-2.7,0.6
		c-1.6,0-2.8-0.6-3.6-1.8c-0.9-1.2-1.3-2.8-1.3-4.8V148z M456.9,148.3c0,1.8,0.4,3.3,1.1,4.3s1.8,1.6,3.2,1.6c1.1,0,2.1-0.3,2.8-0.8
		c0.8-0.5,1.3-1.2,1.6-2.1v-6.2c-0.3-0.9-0.8-1.7-1.5-2.3c-0.7-0.6-1.7-0.9-2.9-0.9c-1.4,0-2.5,0.6-3.2,1.7
		c-0.7,1.1-1.1,2.6-1.1,4.5V148.3z"/>
	<path class="st3" d="M471.3,137.3h-0.7v-1.7h0.7V137.3z M471.3,154.6h-0.7v-13.2h0.7V154.6z"/>
	<path class="st3" d="M483.9,152.2c-0.5,0.8-1.1,1.4-2,1.9c-0.9,0.5-2,0.7-3.3,0.7c-1.2,0-2.2-0.3-2.9-1c-0.7-0.7-1-1.6-1-2.7
		c0-1.1,0.5-2,1.6-2.8c1-0.7,2.3-1.1,3.9-1.1h3.8v-1.9c0-1.1-0.4-2-1.1-2.6c-0.7-0.6-1.7-0.9-3-0.9c-1.2,0-2.2,0.3-2.9,0.9
		c-0.7,0.6-1.1,1.3-1.1,2.2l-0.5,0l0-0.1c0-1,0.3-1.9,1.2-2.6c0.8-0.7,2-1.1,3.3-1.1c1.4,0,2.5,0.4,3.4,1.1s1.3,1.7,1.3,3.1v6.6
		c0,0.5,0,0.9,0.1,1.4c0.1,0.4,0.1,0.9,0.3,1.3h-0.7c-0.1-0.6-0.2-1-0.2-1.3c0-0.3-0.1-0.6-0.1-0.9V152.2z M478.6,154.2
		c1.3,0,2.4-0.3,3.3-0.9c0.9-0.6,1.6-1.4,2-2.5v-3h-3.7c-1.4,0-2.5,0.3-3.5,0.9c-0.9,0.6-1.4,1.4-1.4,2.3c0,0.9,0.3,1.6,0.9,2.2
		C476.8,153.9,477.6,154.2,478.6,154.2z"/>
	<path class="st3" d="M489.4,141.4l0.1,2.7c0.4-0.9,1-1.6,1.8-2.1s1.7-0.8,2.8-0.8c1.4,0,2.5,0.5,3.2,1.4s1.1,2.3,1.1,4.3v7.8h-0.7
		v-7.8c0-1.8-0.3-3.1-1-3.9c-0.7-0.7-1.5-1.1-2.7-1.1c-1.4,0-2.4,0.4-3.2,1.2c-0.7,0.8-1.2,1.8-1.4,3.1v8.5h-0.7v-6.7h0
		c0-0.2,0-0.3,0-0.5c0-0.2,0-0.3,0-0.5v-5.5H489.4z"/>
	<path class="st3" d="M503.8,137.9v3.6h3.2v0.7h-3.2v9.1c0,1.1,0.2,1.8,0.5,2.3s0.8,0.7,1.4,0.7c0.2,0,0.4,0,0.6,0
		c0.2,0,0.4,0,0.7-0.1l0.1,0.6c-0.2,0.1-0.4,0.1-0.6,0.1s-0.5,0-0.7,0c-0.9,0-1.6-0.3-2-0.9c-0.5-0.6-0.7-1.5-0.7-2.8v-9.1h-2.4
		v-0.7h2.4v-3.6H503.8z"/>
	<path class="st3" d="M518.2,151.4c0-0.7-0.3-1.3-0.9-1.9c-0.6-0.6-1.6-1-3.1-1.3c-1.6-0.3-2.7-0.8-3.4-1.3
		c-0.7-0.5-1.1-1.3-1.1-2.3c0-0.9,0.4-1.7,1.2-2.4c0.8-0.6,1.9-1,3.2-1c1.5,0,2.6,0.3,3.4,1c0.8,0.7,1.2,1.6,1.2,2.7l0,0.1h-0.6
		c0-0.9-0.4-1.6-1.1-2.2c-0.7-0.6-1.7-0.9-3-0.9c-1.2,0-2.2,0.3-2.8,0.8c-0.6,0.5-0.9,1.1-0.9,1.8c0,0.7,0.3,1.3,0.8,1.8
		c0.5,0.5,1.6,0.9,3.2,1.3c1.5,0.3,2.6,0.8,3.3,1.4c0.8,0.6,1.1,1.4,1.1,2.5c0,1-0.4,1.9-1.3,2.5c-0.8,0.6-2,1-3.4,1
		c-1.5,0-2.7-0.3-3.6-1c-0.9-0.7-1.3-1.5-1.2-2.5l0-0.1h0.5c0.1,1,0.5,1.8,1.3,2.3c0.8,0.5,1.8,0.7,2.9,0.7c1.2,0,2.2-0.3,2.9-0.9
		S518.2,152.1,518.2,151.4z"/>
	<path class="st3" d="M533.2,154.9c-1.6,0-2.9-0.6-3.9-1.8c-1.1-1.2-1.6-2.7-1.6-4.5v-0.8c0-1.9,0.5-3.5,1.6-4.7s2.4-1.8,4-1.8
		c1.5,0,2.6,0.5,3.5,1.4c0.9,1,1.3,2.3,1.3,3.9v1h-9.7v0.2v0.8c0,1.6,0.5,3,1.4,4c0.9,1.1,2.1,1.6,3.5,1.6c0.8,0,1.5-0.1,2.3-0.4
		c0.7-0.3,1.3-0.7,1.8-1.2l0.4,0.5c-0.5,0.5-1.1,0.9-1.8,1.3C535,154.7,534.2,154.9,533.2,154.9z M533.2,141.9
		c-1.4,0-2.5,0.5-3.4,1.4c-0.9,0.9-1.4,2.1-1.5,3.6l0,0.1h8.9v-0.4c0-1.4-0.4-2.5-1.1-3.4C535.5,142.3,534.5,141.9,533.2,141.9z"/>
	<path class="st3" d="M542.6,137.9v3.6h3.2v0.7h-3.2v9.1c0,1.1,0.2,1.8,0.5,2.3s0.8,0.7,1.4,0.7c0.2,0,0.4,0,0.6,0
		c0.2,0,0.4,0,0.7-0.1l0.1,0.6c-0.2,0.1-0.4,0.1-0.6,0.1s-0.5,0-0.7,0c-0.9,0-1.6-0.3-2-0.9c-0.5-0.6-0.7-1.5-0.7-2.8v-9.1h-2.4
		v-0.7h2.4v-3.6H542.6z"/>
	<path class="st3" d="M555.7,154.6H555v-19h0.7V154.6z"/>
	<path class="st3" d="M564.6,154.9c-1.6,0-2.9-0.6-3.9-1.8c-1.1-1.2-1.6-2.7-1.6-4.5v-0.8c0-1.9,0.5-3.5,1.6-4.7s2.4-1.8,4-1.8
		c1.5,0,2.6,0.5,3.5,1.4c0.9,1,1.3,2.3,1.3,3.9v1h-9.7v0.2v0.8c0,1.6,0.5,3,1.4,4c0.9,1.1,2.1,1.6,3.5,1.6c0.8,0,1.5-0.1,2.3-0.4
		c0.7-0.3,1.3-0.7,1.8-1.2l0.4,0.5c-0.5,0.5-1.1,0.9-1.8,1.3C566.5,154.7,565.6,154.9,564.6,154.9z M564.7,141.9
		c-1.4,0-2.5,0.5-3.4,1.4c-0.9,0.9-1.4,2.1-1.5,3.6l0,0.1h8.9v-0.4c0-1.4-0.4-2.5-1.1-3.4C567,142.3,566,141.9,564.7,141.9z"/>
	<path class="st3" d="M580.7,151.4c0-0.7-0.3-1.3-0.9-1.9c-0.6-0.6-1.6-1-3.1-1.3c-1.6-0.3-2.7-0.8-3.4-1.3
		c-0.7-0.5-1.1-1.3-1.1-2.3c0-0.9,0.4-1.7,1.2-2.4c0.8-0.6,1.9-1,3.2-1c1.5,0,2.6,0.3,3.4,1c0.8,0.7,1.2,1.6,1.2,2.7l0,0.1h-0.6
		c0-0.9-0.4-1.6-1.1-2.2c-0.7-0.6-1.7-0.9-3-0.9c-1.2,0-2.2,0.3-2.8,0.8s-0.9,1.1-0.9,1.8c0,0.7,0.3,1.3,0.8,1.8
		c0.5,0.5,1.6,0.9,3.2,1.3c1.5,0.3,2.6,0.8,3.3,1.4c0.8,0.6,1.1,1.4,1.1,2.5c0,1-0.4,1.9-1.3,2.5c-0.8,0.6-2,1-3.4,1
		c-1.5,0-2.7-0.3-3.6-1c-0.9-0.7-1.3-1.5-1.2-2.5l0-0.1h0.5c0.1,1,0.5,1.8,1.3,2.3c0.8,0.5,1.8,0.7,2.9,0.7c1.2,0,2.2-0.3,2.9-0.9
		S580.7,152.1,580.7,151.4z"/>
	<path class="st3" d="M595.7,154.9c-1.6,0-2.9-0.6-3.9-1.8c-1.1-1.2-1.6-2.7-1.6-4.5v-0.8c0-1.9,0.5-3.5,1.6-4.7s2.4-1.8,4-1.8
		c1.5,0,2.6,0.5,3.5,1.4c0.9,1,1.3,2.3,1.3,3.9v1h-9.7v0.2v0.8c0,1.6,0.5,3,1.4,4c0.9,1.1,2.1,1.6,3.5,1.6c0.8,0,1.5-0.1,2.3-0.4
		c0.7-0.3,1.3-0.7,1.8-1.2l0.4,0.5c-0.5,0.5-1.1,0.9-1.8,1.3C597.5,154.7,596.7,154.9,595.7,154.9z M595.7,141.9
		c-1.4,0-2.5,0.5-3.4,1.4c-0.9,0.9-1.4,2.1-1.5,3.6l0,0.1h8.9v-0.4c0-1.4-0.4-2.5-1.1-3.4C598,142.3,597,141.9,595.7,141.9z
		 M597.8,135.8h0.9l0,0.1l-2.8,3.2h-0.8l0-0.1L597.8,135.8z"/>
	<path class="st3" d="M605.1,137.9v3.6h3.2v0.7h-3.2v9.1c0,1.1,0.2,1.8,0.5,2.3s0.8,0.7,1.4,0.7c0.2,0,0.4,0,0.6,0
		c0.2,0,0.4,0,0.7-0.1l0.1,0.6c-0.2,0.1-0.4,0.1-0.6,0.1s-0.5,0-0.7,0c-0.9,0-1.6-0.3-2-0.9c-0.5-0.6-0.7-1.5-0.7-2.8v-9.1h-2.4
		v-0.7h2.4v-3.6H605.1z"/>
	<path class="st3" d="M620.2,152.3c-0.4,0.8-1,1.4-1.8,1.9c-0.8,0.5-1.7,0.7-2.8,0.7c-1.4,0-2.4-0.5-3.2-1.4c-0.8-1-1.2-2.5-1.2-4.5
		v-7.5h0.7v7.5c0,1.8,0.3,3.1,1,4s1.5,1.3,2.7,1.3c1.3,0,2.4-0.3,3.1-1c0.7-0.7,1.2-1.5,1.4-2.6v-9.2h0.7v7.8h0c0,0.1,0,0.2,0,0.3
		c0,0.1,0,0.2,0,0.3v4.8h-0.5L620.2,152.3z"/>
	<path class="st3" d="M624.4,148c0-2.1,0.4-3.7,1.3-5c0.9-1.2,2.1-1.8,3.7-1.8c1,0,1.9,0.2,2.7,0.7c0.8,0.5,1.3,1.1,1.8,1.9v-8.1
		h0.7v9.9c0,0,0,0,0,0c0,0,0,0,0,0v5.4c0,0,0,0,0,0s0,0,0,0v3.6h-0.6l0-2c-0.4,0.7-1,1.3-1.8,1.7c-0.8,0.4-1.7,0.6-2.7,0.6
		c-1.6,0-2.8-0.6-3.6-1.8c-0.9-1.2-1.3-2.8-1.3-4.8V148z M625.1,148.3c0,1.8,0.4,3.3,1.1,4.3s1.8,1.6,3.2,1.6c1.1,0,2.1-0.3,2.8-0.8
		c0.8-0.5,1.3-1.2,1.6-2.1v-6.2c-0.3-0.9-0.8-1.7-1.5-2.3c-0.7-0.6-1.7-0.9-2.9-0.9c-1.4,0-2.5,0.6-3.2,1.7
		c-0.7,1.1-1.1,2.6-1.1,4.5V148.3z"/>
	<path class="st3" d="M639.5,137.3h-0.7v-1.7h0.7V137.3z M639.5,154.6h-0.7v-13.2h0.7V154.6z"/>
	<path class="st3" d="M652.1,152.2c-0.5,0.8-1.1,1.4-2,1.9c-0.9,0.5-2,0.7-3.3,0.7c-1.2,0-2.2-0.3-2.9-1c-0.7-0.7-1-1.6-1-2.7
		c0-1.1,0.5-2,1.6-2.8c1-0.7,2.3-1.1,3.9-1.1h3.8v-1.9c0-1.1-0.4-2-1.1-2.6c-0.7-0.6-1.7-0.9-3-0.9c-1.2,0-2.2,0.3-2.9,0.9
		c-0.7,0.6-1.1,1.3-1.1,2.2l-0.5,0l0-0.1c0-1,0.3-1.9,1.2-2.6c0.8-0.7,2-1.1,3.3-1.1c1.4,0,2.5,0.4,3.4,1.1s1.3,1.7,1.3,3.1v6.6
		c0,0.5,0,0.9,0.1,1.4c0.1,0.4,0.1,0.9,0.3,1.3h-0.7c-0.1-0.6-0.2-1-0.2-1.3c0-0.3-0.1-0.6-0.1-0.9V152.2z M646.8,154.2
		c1.3,0,2.4-0.3,3.3-0.9c0.9-0.6,1.6-1.4,2-2.5v-3h-3.7c-1.4,0-2.5,0.3-3.5,0.9c-0.9,0.6-1.4,1.4-1.4,2.3c0,0.9,0.3,1.6,0.9,2.2
		C645,153.9,645.8,154.2,646.8,154.2z"/>
	<path class="st3" d="M657.6,141.4l0.1,2.7c0.4-0.9,1-1.6,1.8-2.1s1.7-0.8,2.8-0.8c1.4,0,2.5,0.5,3.2,1.4s1.1,2.3,1.1,4.3v7.8h-0.7
		v-7.8c0-1.8-0.3-3.1-1-3.9c-0.7-0.7-1.5-1.1-2.7-1.1c-1.4,0-2.4,0.4-3.2,1.2c-0.7,0.8-1.2,1.8-1.4,3.1v8.5H657v-6.7h0
		c0-0.2,0-0.3,0-0.5c0-0.2,0-0.3,0-0.5v-5.5H657.6z"/>
	<path class="st3" d="M672,137.9v3.6h3.2v0.7H672v9.1c0,1.1,0.2,1.8,0.5,2.3s0.8,0.7,1.4,0.7c0.2,0,0.4,0,0.6,0c0.2,0,0.4,0,0.7-0.1
		l0.1,0.6c-0.2,0.1-0.4,0.1-0.6,0.1s-0.5,0-0.7,0c-0.9,0-1.6-0.3-2-0.9c-0.5-0.6-0.7-1.5-0.7-2.8v-9.1h-2.4v-0.7h2.4v-3.6H672z"/>
	<path class="st3" d="M683,154.9c-1.6,0-2.9-0.6-3.9-1.8c-1.1-1.2-1.6-2.7-1.6-4.5v-0.8c0-1.9,0.5-3.5,1.6-4.7s2.4-1.8,4-1.8
		c1.5,0,2.6,0.5,3.5,1.4c0.9,1,1.3,2.3,1.3,3.9v1h-9.7v0.2v0.8c0,1.6,0.5,3,1.4,4c0.9,1.1,2.1,1.6,3.5,1.6c0.8,0,1.5-0.1,2.3-0.4
		c0.7-0.3,1.3-0.7,1.8-1.2l0.4,0.5c-0.5,0.5-1.1,0.9-1.8,1.3C684.9,154.7,684,154.9,683,154.9z M683,141.9c-1.4,0-2.5,0.5-3.4,1.4
		c-0.9,0.9-1.4,2.1-1.5,3.6l0,0.1h8.9v-0.4c0-1.4-0.4-2.5-1.1-3.4C685.3,142.3,684.3,141.9,683,141.9z"/>
	<path class="st3" d="M699.1,151.4c0-0.7-0.3-1.3-0.9-1.9c-0.6-0.6-1.6-1-3.1-1.3c-1.6-0.3-2.7-0.8-3.4-1.3
		c-0.7-0.5-1.1-1.3-1.1-2.3c0-0.9,0.4-1.7,1.2-2.4c0.8-0.6,1.9-1,3.2-1c1.5,0,2.6,0.3,3.4,1c0.8,0.7,1.2,1.6,1.2,2.7l0,0.1h-0.6
		c0-0.9-0.4-1.6-1.1-2.2c-0.7-0.6-1.7-0.9-3-0.9c-1.2,0-2.2,0.3-2.8,0.8s-0.9,1.1-0.9,1.8c0,0.7,0.3,1.3,0.8,1.8
		c0.5,0.5,1.6,0.9,3.2,1.3c1.5,0.3,2.6,0.8,3.3,1.4c0.8,0.6,1.1,1.4,1.1,2.5c0,1-0.4,1.9-1.3,2.5c-0.8,0.6-2,1-3.4,1
		c-1.5,0-2.7-0.3-3.6-1c-0.9-0.7-1.3-1.5-1.2-2.5l0-0.1h0.5c0.1,1,0.5,1.8,1.3,2.3c0.8,0.5,1.8,0.7,2.9,0.7c1.2,0,2.2-0.3,2.9-0.9
		S699.1,152.1,699.1,151.4z"/>
</g>
</svg>
