<?xml version="1.0" encoding="utf-8"?>
<!-- Generator: Adobe Illustrator 26.0.3, SVG Export Plug-In . SVG Version: 6.00 Build 0)  -->
<svg version="1.1" id="Layer_1" xmlns="http://www.w3.org/2000/svg" xmlns:xlink="http://www.w3.org/1999/xlink" x="0px" y="0px"
	 viewBox="0 0 129.9 49.3" style="enable-background:new 0 0 129.9 49.3;" xml:space="preserve">
<style type="text/css">
	.st0{fill:#6EC7F1;}
	.st1{fill:#4A98D9;}
</style>
<g id="Film_01">
</g>
<g id="New_Symbol_8">
</g>
<g>
	<g>
		<g>
			<g>
				<polygon class="st0" points="7.5,38.3 7.5,25.5 30,9.1 36.2,13.6 42.4,9.1 30,0 0.2,21.8 0.2,38.3 				"/>
			</g>
			<g>
				<polygon class="st0" points="31.8,38.3 31.8,25.5 54.2,9.1 66.6,9.1 54.2,0 24.5,21.8 24.5,38.3 				"/>
			</g>
		</g>
	</g>
	<g>
		<path class="st0" d="M46,37.7c0,0.4-0.1,0.7-0.4,0.9c-0.3,0.1-0.6,0.2-1.1,0.2s-0.9-0.1-1.1-0.2c-0.3-0.1-0.4-0.4-0.4-0.9V23.2
			c0-0.4,0.1-0.7,0.4-0.9c0.3-0.1,0.6-0.2,1.1-0.2s0.9,0.1,1.1,0.2c0.3,0.1,0.4,0.4,0.4,0.9V37.7z"/>
		<path class="st0" d="M72.5,23.1c0.2-0.3,0.5-0.5,0.8-0.6s0.6-0.2,1-0.2c1.1,0,1.7,0.5,1.7,1.5v13.9c0,0.4-0.1,0.7-0.4,0.9
			c-0.3,0.1-0.6,0.2-1.1,0.2s-0.9-0.1-1.1-0.2c-0.3-0.1-0.4-0.4-0.4-0.9V26.9l-9.1,11c-0.3,0.3-0.5,0.5-0.8,0.7
			c-0.3,0.1-0.6,0.2-1,0.2s-0.8-0.1-1.1-0.2c-0.3-0.1-0.6-0.4-0.8-0.7l-9.1-11v10.8c0,0.4-0.1,0.7-0.4,0.9c-0.3,0.1-0.6,0.2-1.1,0.2
			s-0.9-0.1-1.1-0.2c-0.3-0.1-0.4-0.4-0.4-0.9V23.8c0-1,0.6-1.5,1.7-1.5c0.7,0,1.3,0.3,1.8,0.8L62,35.7L72.5,23.1z"/>
		<path class="st0" d="M102.6,23.1c0.2-0.3,0.5-0.5,0.8-0.6s0.6-0.2,1-0.2c1.1,0,1.7,0.5,1.7,1.5v13.9c0,0.4-0.1,0.7-0.4,0.9
			c-0.3,0.1-0.6,0.2-1.1,0.2s-0.9-0.1-1.1-0.2c-0.3-0.1-0.4-0.4-0.4-0.9V26.9l-9.1,11c-0.3,0.3-0.5,0.5-0.8,0.7
			c-0.3,0.1-0.6,0.2-1,0.2s-0.8-0.1-1.1-0.2c-0.3-0.1-0.6-0.4-0.8-0.7l-9.1-11v10.8c0,0.4-0.1,0.7-0.4,0.9c-0.3,0.1-0.6,0.2-1.1,0.2
			s-0.9-0.1-1.1-0.2c-0.3-0.1-0.4-0.4-0.4-0.9V23.8c0-1,0.6-1.5,1.7-1.5c0.7,0,1.3,0.3,1.8,0.8L92,35.7L102.6,23.1z"/>
		<path class="st0" d="M114.7,38.7c-4.5,0-6.7-1.4-6.7-4.2v-8c0-2.8,2.2-4.2,6.7-4.2h6.6c4.5,0,6.7,1.4,6.7,4.2v8
			c0,2.8-2.2,4.2-6.7,4.2H114.7z M121.2,36.2c1.3,0,2.3-0.2,2.9-0.5s0.9-0.8,0.9-1.2v-8c0-0.5-0.3-0.9-0.9-1.3
			c-0.6-0.3-1.6-0.5-2.9-0.5h-6.4c-1.3,0-2.3,0.2-2.9,0.5S111,26,111,26.5v8c0,0.5,0.3,0.9,0.9,1.2s1.6,0.5,2.9,0.5H121.2z"/>
	</g>
	<g>
		<path class="st0" d="M3.7,47.4H3.1l-0.4-1.2H1l-0.4,1.2H0l1.6-4.1h0.5L3.7,47.4z M2.6,45.8L1.9,44c0-0.1,0-0.2-0.1-0.3l0,0
			c0,0.1,0,0.2-0.1,0.3l-0.6,1.8H2.6z"/>
		<path class="st0" d="M8.1,47.1c0,1.1-0.5,1.6-1.6,1.6c-0.4,0-0.7-0.1-1-0.2V48c0.3,0.2,0.7,0.3,1,0.3c0.7,0,1.1-0.4,1.1-1.2v-0.3
			l0,0c-0.2,0.4-0.6,0.6-1,0.6S5.9,47.3,5.7,47c-0.2-0.3-0.3-0.6-0.3-1.1s0.1-0.9,0.4-1.2s0.6-0.4,1-0.4s0.7,0.2,0.9,0.5l0,0v-0.4
			h0.5L8.1,47.1L8.1,47.1z M7.6,46v-0.4c0-0.2-0.1-0.4-0.2-0.6c-0.2-0.2-0.4-0.3-0.6-0.3c-0.3,0-0.5,0.1-0.7,0.3s-0.3,0.6-0.3,1
			c0,0.3,0.1,0.6,0.2,0.8C6.2,46.9,6.4,47,6.7,47c0.3,0,0.5,0,0.6-0.2C7.5,46.6,7.6,46.3,7.6,46z"/>
		<path class="st0" d="M12.7,46h-2.1c0,0.3,0.1,0.6,0.3,0.8C11,47,11.3,47,11.6,47s0.6-0.1,0.9-0.3v0.4c-0.3,0.2-0.6,0.3-1,0.3
			s-0.7-0.1-1-0.4s-0.4-0.6-0.4-1.1s0.1-0.8,0.4-1.1c0.3-0.3,0.6-0.4,1-0.4s0.7,0.1,0.9,0.4c0.2,0.2,0.3,0.6,0.3,1V46z M12.2,45.6
			c0-0.3-0.1-0.5-0.2-0.6s-0.3-0.2-0.5-0.2s-0.4,0.1-0.6,0.2c-0.2,0.2-0.3,0.4-0.3,0.6H12.2z"/>
		<path class="st0" d="M17.2,47.4h-0.5v-1.7c0-0.6-0.2-0.9-0.7-0.9c-0.2,0-0.4,0.1-0.6,0.3c-0.2,0.2-0.2,0.4-0.2,0.7v1.7h-0.5v-3
			h0.5V45l0,0c0.2-0.4,0.5-0.6,1-0.6c0.3,0,0.6,0.1,0.7,0.3s0.3,0.5,0.3,0.9V47.4z"/>
		<path class="st0" d="M21.4,47.2c-0.2,0.1-0.5,0.2-0.8,0.2c-0.4,0-0.8-0.1-1-0.4s-0.4-0.6-0.4-1.1s0.1-0.9,0.4-1.2s0.7-0.4,1.1-0.4
			c0.3,0,0.5,0,0.7,0.1V45c-0.2-0.2-0.5-0.2-0.7-0.2c-0.3,0-0.6,0.1-0.7,0.3c-0.2,0.2-0.3,0.5-0.3,0.9c0,0.3,0.1,0.6,0.3,0.8
			c0.2,0.2,0.4,0.3,0.7,0.3c0.3,0,0.5-0.1,0.7-0.3C21.4,46.8,21.4,47.2,21.4,47.2z"/>
		<path class="st0" d="M25.8,46h-2.1c0,0.3,0.1,0.6,0.3,0.8c0.2,0.2,0.4,0.3,0.7,0.3c0.3,0,0.6-0.1,0.9-0.3v0.4
			c-0.3,0.2-0.6,0.3-1,0.3s-0.7-0.1-1-0.4s-0.4-0.6-0.4-1.1s0.1-0.8,0.4-1.1s0.6-0.4,1-0.4s0.7,0.1,0.9,0.4
			C25.7,45.1,25.8,45.5,25.8,46C25.8,45.9,25.8,46,25.8,46z M25.3,45.6c0-0.3-0.1-0.5-0.2-0.6s-0.3-0.2-0.5-0.2S24.2,44.9,24,45
			c-0.2,0.2-0.3,0.4-0.3,0.6H25.3z"/>
		<path class="st0" d="M31.3,47.4h-0.5v-4.1h0.5V47.4z"/>
		<path class="st0" d="M37.8,47.4h-0.5v-1.7c0-0.3-0.1-0.6-0.2-0.7c-0.1-0.1-0.3-0.2-0.5-0.2s-0.4,0.1-0.5,0.3s-0.2,0.4-0.2,0.7v1.7
			h-0.5v-1.8c0-0.6-0.2-0.9-0.7-0.9c-0.2,0-0.4,0.1-0.5,0.3S34,45.5,34,45.8v1.7h-0.5v-3H34V45l0,0c0.2-0.4,0.5-0.5,0.9-0.5
			c0.2,0,0.4,0.1,0.5,0.2c0.2,0.1,0.3,0.3,0.3,0.4c0.2-0.4,0.5-0.6,1-0.6c0.7,0,1,0.4,1,1.2L37.8,47.4
			C37.7,47.4,37.8,47.4,37.8,47.4z"/>
		<path class="st0" d="M44.2,47.4h-0.5v-1.7c0-0.3-0.1-0.6-0.2-0.7c-0.1-0.1-0.3-0.2-0.5-0.2s-0.4,0.1-0.5,0.3s-0.2,0.4-0.2,0.7v1.7
			h-0.5v-1.8c0-0.6-0.2-0.9-0.7-0.9c-0.2,0-0.4,0.1-0.5,0.3s-0.2,0.4-0.2,0.7v1.7H40v-3h0.5V45l0,0c0.2-0.4,0.5-0.5,0.9-0.5
			c0.2,0,0.4,0.1,0.5,0.2c0.2,0.1,0.3,0.3,0.3,0.4c0.2-0.4,0.5-0.6,1-0.6c0.7,0,1,0.4,1,1.2V47.4z"/>
		<path class="st0" d="M47.6,47.4c-0.4,0-0.8-0.1-1-0.4c-0.3-0.3-0.4-0.6-0.4-1.1s0.1-0.9,0.4-1.2c0.3-0.3,0.6-0.4,1.1-0.4
			c0.4,0,0.8,0.1,1,0.4s0.4,0.6,0.4,1.1s-0.1,0.9-0.4,1.1C48.4,47.3,48.1,47.4,47.6,47.4z M47.7,44.7c-0.3,0-0.5,0.1-0.7,0.3
			s-0.3,0.5-0.3,0.9s0.1,0.6,0.3,0.8s0.4,0.3,0.7,0.3s0.5-0.1,0.7-0.3s0.2-0.5,0.2-0.8c0-0.4-0.1-0.7-0.2-0.9S48,44.7,47.7,44.7z"/>
		<path class="st0" d="M51.7,46.9L51.7,46.9v0.4h-0.5V43h0.5v1.9l0,0c0.2-0.4,0.6-0.6,1-0.6s0.7,0.1,0.9,0.4s0.3,0.6,0.3,1.1
			s-0.1,0.9-0.4,1.2s-0.6,0.4-1,0.4C52.1,47.4,51.9,47.3,51.7,46.9z M51.6,45.8v0.4c0,0.2,0.1,0.5,0.2,0.6C52,47,52.2,47,52.5,47
			s0.5-0.1,0.7-0.3s0.2-0.5,0.2-0.9c0-0.3-0.1-0.6-0.2-0.8c-0.2-0.2-0.4-0.3-0.6-0.3c-0.3,0-0.5,0.1-0.7,0.3S51.6,45.5,51.6,45.8z"
			/>
		<path class="st0" d="M56.2,43.7c-0.1,0-0.2,0-0.2-0.1s-0.1-0.1-0.1-0.2s0-0.2,0.1-0.2s0.1-0.1,0.2-0.1c0.1,0,0.2,0,0.2,0.1
			s0.1,0.1,0.1,0.2c0,0.1,0,0.2-0.1,0.2S56.3,43.7,56.2,43.7z M56.4,47.4h-0.5v-3h0.5V47.4z"/>
		<path class="st0" d="M59.2,47.4h-0.5V43h0.5V47.4z"/>
		<path class="st0" d="M61.7,43.7c-0.1,0-0.2,0-0.2-0.1s-0.1-0.1-0.1-0.2s0-0.2,0.1-0.2s0.1-0.1,0.2-0.1c0.1,0,0.2,0,0.2,0.1
			s0.1,0.1,0.1,0.2c0,0.1,0,0.2-0.1,0.2S61.7,43.7,61.7,43.7z M61.9,47.4h-0.5v-3h0.5V47.4z"/>
		<path class="st0" d="M66.5,46h-2.1c0,0.3,0.1,0.6,0.3,0.8c0.2,0.2,0.4,0.3,0.7,0.3c0.3,0,0.6-0.1,0.9-0.3v0.4
			c-0.3,0.2-0.6,0.3-1,0.3s-0.7-0.1-1-0.4S64,46.4,64,45.9s0.1-0.8,0.4-1.1s0.6-0.4,1-0.4s0.7,0.1,0.9,0.4c0.2,0.2,0.3,0.6,0.3,1V46
			H66.5z M66,45.6c0-0.3-0.1-0.5-0.2-0.6c-0.1-0.2-0.3-0.2-0.5-0.2s-0.4,0.1-0.6,0.2s-0.3,0.4-0.3,0.6H66z M65.8,43.9h-0.4L64.6,43
			h0.5L65.8,43.9z"/>
		<path class="st0" d="M70.1,44.9c-0.1-0.1-0.2-0.1-0.4-0.1c-0.2,0-0.4,0.1-0.5,0.3S69,45.6,69,45.9v1.5h-0.5v-3H69V45l0,0
			c0.1-0.2,0.2-0.4,0.3-0.5s0.3-0.2,0.5-0.2c0.1,0,0.2,0,0.3,0C70.1,44.3,70.1,44.9,70.1,44.9z"/>
		<path class="st0" d="M74.2,46h-2.1c0,0.3,0.1,0.6,0.3,0.8c0.2,0.2,0.4,0.3,0.7,0.3c0.3,0,0.6-0.1,0.9-0.3v0.4
			c-0.3,0.2-0.6,0.3-1,0.3s-0.7-0.1-1-0.4s-0.4-0.6-0.4-1.1s0.1-0.8,0.4-1.1s0.6-0.4,1-0.4s0.7,0.1,0.9,0.4
			C74.1,45.1,74.2,45.5,74.2,46C74.2,45.9,74.2,46,74.2,46z M73.7,45.6c0-0.3-0.1-0.5-0.2-0.6c-0.1-0.2-0.3-0.2-0.5-0.2
			s-0.4,0.1-0.6,0.2s-0.3,0.4-0.3,0.6H73.7z"/>
		<path class="st0" d="M83.4,47.4H83v-2.8c0-0.2,0-0.5,0-0.8l0,0c0,0.2-0.1,0.3-0.1,0.4l-1.4,3.2h-0.2l-1.4-3.2
			c0-0.1-0.1-0.2-0.1-0.4l0,0c0,0.2,0,0.4,0,0.8v2.8h-0.5v-4.1h0.6l1.3,2.9c0.1,0.2,0.2,0.4,0.2,0.5l0,0c0.1-0.2,0.1-0.4,0.2-0.5
			l1.3-2.9h0.6L83.4,47.4L83.4,47.4z"/>
		<path class="st0" d="M87,47.4c-0.4,0-0.8-0.1-1-0.4s-0.4-0.6-0.4-1.1s0.1-0.9,0.4-1.2s0.6-0.4,1.1-0.4c0.4,0,0.8,0.1,1,0.4
			c0.2,0.3,0.4,0.6,0.4,1.1s-0.1,0.9-0.4,1.1S87.5,47.4,87,47.4z M87,44.7c-0.3,0-0.5,0.1-0.7,0.3S86,45.5,86,45.9s0.1,0.6,0.3,0.8
			c0.2,0.2,0.4,0.3,0.7,0.3c0.3,0,0.5-0.1,0.7-0.3s0.2-0.5,0.2-0.8c0-0.4-0.1-0.7-0.2-0.9S87.3,44.7,87,44.7z"/>
		<path class="st0" d="M93,47.4h-0.5v-1.7c0-0.6-0.2-0.9-0.7-0.9c-0.2,0-0.4,0.1-0.6,0.3S91,45.5,91,45.8v1.7h-0.5v-3H91V45l0,0
			c0.2-0.4,0.5-0.6,1-0.6c0.3,0,0.6,0.1,0.7,0.3c0.2,0.2,0.3,0.5,0.3,0.9V47.4z"/>
		<path class="st0" d="M96.6,47.3c-0.1,0.1-0.3,0.1-0.4,0.1c-0.5,0-0.8-0.3-0.8-0.9v-1.8h-0.5v-0.4h0.5v-0.7l0.5-0.2v0.9h0.7v0.4
			h-0.7v1.7c0,0.2,0,0.3,0.1,0.4c0,0.2,0.1,0.2,0.3,0.2c0.1,0,0.2,0,0.3-0.1V47.3z"/>
		<path class="st0" d="M100,44.9c-0.1-0.1-0.2-0.1-0.4-0.1c-0.2,0-0.4,0.1-0.5,0.3C99,45.3,99,45.5,99,45.9v1.5h-0.5v-3H99V45l0,0
			c0.1-0.2,0.2-0.4,0.3-0.5s0.3-0.2,0.5-0.2c0.1,0,0.2,0,0.3,0v0.6C100.1,44.9,100,44.9,100,44.9z"/>
		<path class="st0" d="M104.2,46h-2.1c0,0.3,0.1,0.6,0.3,0.8c0.2,0.2,0.4,0.3,0.7,0.3c0.3,0,0.6-0.1,0.9-0.3v0.4
			c-0.3,0.2-0.6,0.3-1,0.3s-0.7-0.1-1-0.4s-0.4-0.6-0.4-1.1s0.1-0.8,0.4-1.1s0.6-0.4,1-0.4s0.7,0.1,0.9,0.4
			C104.1,45.1,104.2,45.5,104.2,46C104.2,45.9,104.2,46,104.2,46z M103.7,45.6c0-0.3-0.1-0.5-0.2-0.6c-0.1-0.2-0.3-0.2-0.5-0.2
			s-0.4,0.1-0.6,0.2s-0.3,0.4-0.3,0.6H103.7z M103.6,42.9l-0.8,0.9h-0.4l0.6-0.9H103.6z"/>
		<path class="st0" d="M108.3,47.4h-0.5v-0.5l0,0c-0.2,0.4-0.5,0.5-0.9,0.5c-0.3,0-0.5-0.1-0.7-0.2c-0.2-0.2-0.2-0.4-0.2-0.6
			c0-0.6,0.3-0.9,1-1l0.9-0.1c0-0.5-0.2-0.8-0.6-0.8s-0.7,0.1-1,0.4v-0.5c0.3-0.2,0.6-0.3,1-0.3c0.7,0,1,0.4,1,1.1
			C108.3,45.4,108.3,47.4,108.3,47.4z M107.8,45.9l-0.7,0.1c-0.2,0-0.4,0.1-0.5,0.2s-0.2,0.2-0.2,0.4c0,0.1,0.1,0.3,0.2,0.4
			c0.1,0.1,0.2,0.1,0.4,0.1c0.2,0,0.4-0.1,0.6-0.2c0.2-0.2,0.2-0.4,0.2-0.6V45.9z"/>
		<path class="st0" d="M111,47.4h-0.5V43h0.5V47.4z"/>
		<path class="st0" d="M115.3,47.4h-0.5v-0.5l0,0c-0.2,0.4-0.5,0.5-0.9,0.5c-0.3,0-0.5-0.1-0.7-0.2c-0.2-0.2-0.2-0.4-0.2-0.6
			c0-0.6,0.3-0.9,1-1l0.9-0.1c0-0.5-0.2-0.8-0.6-0.8s-0.7,0.1-1,0.4v-0.5c0.3-0.2,0.6-0.3,1-0.3c0.7,0,1,0.4,1,1.1
			C115.3,45.4,115.3,47.4,115.3,47.4z M114.9,45.9l-0.7,0.1c-0.2,0-0.4,0.1-0.5,0.2s-0.2,0.2-0.2,0.4c0,0.1,0.1,0.3,0.2,0.4
			c0.1,0.1,0.2,0.1,0.4,0.1c0.2,0,0.4-0.1,0.6-0.2c0.2-0.2,0.2-0.4,0.2-0.6V45.9z"/>
		<path class="st0" d="M117.8,43.7c-0.1,0-0.2,0-0.2-0.1s-0.1-0.1-0.1-0.2s0-0.2,0.1-0.2s0.1-0.1,0.2-0.1s0.2,0,0.2,0.1
			s0.1,0.1,0.1,0.2c0,0.1,0,0.2-0.1,0.2S117.9,43.7,117.8,43.7z M118,47.4h-0.5v-3h0.5V47.4z"/>
		<path class="st0" d="M120.1,47.3v-0.5c0.3,0.2,0.5,0.3,0.9,0.3s0.6-0.1,0.6-0.4c0-0.1,0-0.1-0.1-0.2c0-0.1-0.1-0.1-0.1-0.1
			c-0.1,0-0.1-0.1-0.2-0.1s-0.2-0.1-0.3-0.1c-0.1-0.1-0.2-0.1-0.3-0.2c-0.1-0.1-0.2-0.1-0.2-0.2s-0.1-0.1-0.2-0.2c0-0.1,0-0.2,0-0.3
			s0-0.3,0.1-0.4c0.1-0.1,0.1-0.2,0.3-0.3c0.1-0.1,0.2-0.1,0.4-0.2c0.1,0,0.3-0.1,0.4-0.1c0.3,0,0.5,0,0.7,0.1V45
			c-0.2-0.1-0.5-0.2-0.8-0.2c-0.1,0-0.2,0-0.2,0c-0.1,0-0.1,0-0.2,0.1c-0.1,0-0.1,0.1-0.1,0.1c0,0.1,0,0.1,0,0.2c0,0.1,0,0.1,0,0.2
			c0,0.1,0.1,0.1,0.1,0.1c0.1,0,0.1,0.1,0.2,0.1s0.2,0.1,0.3,0.1c0.1,0,0.2,0.1,0.4,0.2c0.1,0.1,0.2,0.1,0.3,0.2s0.1,0.1,0.2,0.2
			c0,0.1,0.1,0.2,0.1,0.3s0,0.3-0.1,0.4c-0.1,0.1-0.2,0.2-0.3,0.3c-0.1,0.1-0.2,0.1-0.4,0.2c-0.1,0-0.3,0.1-0.4,0.1
			C120.6,47.4,120.3,47.4,120.1,47.3z"/>
		<path class="st0" d="M126.5,46h-2.1c0,0.3,0.1,0.6,0.3,0.8c0.2,0.2,0.4,0.3,0.7,0.3c0.3,0,0.6-0.1,0.9-0.3v0.4
			c-0.3,0.2-0.6,0.3-1,0.3s-0.7-0.1-1-0.4s-0.4-0.6-0.4-1.1s0.1-0.8,0.4-1.1s0.6-0.4,1-0.4s0.7,0.1,0.9,0.4
			C126.4,45.1,126.5,45.5,126.5,46C126.5,45.9,126.5,46,126.5,46z M126,45.6c0-0.3-0.1-0.5-0.2-0.6c-0.1-0.2-0.3-0.2-0.5-0.2
			s-0.4,0.1-0.6,0.2s-0.3,0.4-0.3,0.6H126z"/>
	</g>
</g>
<g>
	<polygon class="st1" points="0,19.1 6.3,14.1 6.3,6.7 0,11.7 	"/>
</g>
</svg>
